<?xml version="1.0" encoding="UTF-8"?>
<svg id="Camada_1" data-name="Camada 1" xmlns="http://www.w3.org/2000/svg" viewBox="0 0 512 512">
  <defs>
    <style>
      .cls-1, .cls-2 {
        fill: #39c;
      }

      .cls-2 {
        fill-rule: evenodd;
      }
    </style>
  </defs>
  <path class="cls-2" d="m343.68,155.46c0,12.03-4.81,23.04-12.72,30.95-7.91,7.91-18.91,12.72-30.95,12.72s-22.35-4.47-30.26-12.03h0c-3.09-2.75-5.5-5.85-7.56-9.63-2.06-3.44-3.44-6.88-4.47-10.66-1.03-3.78-1.72-7.56-1.72-11.69,0-10.32,3.44-19.94,9.63-27.51,1.03-1.03,2.06-2.41,3.09-3.44,1.72-1.72,3.44-3.09,5.16-4.47,3.09-2.41,6.53-4.13,10.32-5.5,4.81-1.72,9.97-2.75,15.47-2.75,12.03,0,23.04,4.81,30.95,12.72,8.25,8.25,13.07,18.91,13.07,31.29Z"/>
  <path class="cls-2" d="m102.4,227.23v4.03c-.4,5.24-1.61,10.48-3.61,15.32-1.61,4.43-4.02,8.06-6.83,11.69-1.2,1.61-2.81,3.63-4.42,5.24-1.61,1.61-3.21,3.23-5.22,4.43-8.83,6.45-19.28,10.48-30.92,10.48-28.51.4-51.4-22.58-51.4-51.2,0-14.11,5.62-27.01,14.86-36.28,9.24-9.27,22.09-14.92,36.14-14.92,5.22,0,10.04.81,14.46,2.02,4.42,1.21,8.43,3.23,12.45,5.64,3.21,2.02,6.43,4.43,9.24,7.26.4.4.8.81,1.2,1.61,3.21,3.63,6.02,7.66,8.43,12.09,2.01,4.03,3.61,8.47,4.42,12.9.8,2.82,1.2,6.45,1.2,9.68Z"/>
  <path class="cls-2" d="m329.93,368.48c0,12.03-4.81,23.04-12.72,30.95-7.91,7.91-18.91,12.72-30.95,12.72-6.53,0-12.38-1.38-17.88-3.78-3.44-1.72-6.88-3.78-9.97-6.19s-5.85-5.16-7.91-8.6c-5.16-7.22-8.25-15.82-8.25-25.44,0-5.85,1.03-11.35,3.44-16.5,1.38-3.78,3.44-6.88,5.85-9.97,1.03-1.38,2.41-3.09,3.78-4.47,1.38-1.38,2.75-2.75,4.47-3.78,7.56-5.5,16.5-8.94,26.48-8.94,12.03,0,23.04,4.81,30.95,12.72,7.91,8.25,12.72,19.26,12.72,31.29Z"/>
  <path class="cls-1" d="m93.01,229.9v-2.67c0-2.14-.34-4.54-.69-6.67-.69-2.94-2.06-5.87-3.78-8.54l169.18-47.78c1.03,2.94,2.41,5.61,4.47,8.28,2.06,2.67,4.81,5.34,7.56,7.47l-176.74,49.92Z"/>
  <path class="cls-1" d="m284.54,123.39c-3.78,1.07-7.22,2.4-10.32,4.27-2.06,1.07-3.78,2.14-5.16,3.47-1.03.8-2.06,1.87-3.09,2.67l-61.89-65.94c4.13-.53,7.91-1.6,11.35-2.94s6.53-2.94,9.63-5.07l59.49,63.53Z"/>
  <g>
    <path class="cls-2" d="m512,51.2v4.03c-.4,5.24-1.61,10.48-3.61,15.32-1.61,4.43-4.02,8.06-6.83,11.69-1.2,1.61-2.81,3.63-4.42,5.24s-3.21,3.23-5.22,4.43c-8.83,6.45-19.28,10.48-30.92,10.48-28.51.4-51.4-22.58-51.4-51.2,0-14.11,5.62-27.01,14.86-36.28,9.24-9.27,22.09-14.92,36.14-14.92,5.22,0,10.04.81,14.46,2.02,4.42,1.21,8.43,3.23,12.45,5.64,3.21,2.02,6.43,4.43,9.24,7.26.4.4.8.81,1.2,1.61,3.21,3.63,6.02,7.66,8.43,12.09,2.01,4.03,3.61,8.47,4.42,12.9.8,2.82,1.2,6.45,1.2,9.68Z"/>
    <path class="cls-1" d="m429.3,51.2c0,3.2.69,6.14,1.72,9.08h-198.06c2.41-2.67,4.13-5.87,5.5-9.08,1.03-2.94,1.72-5.87,1.72-9.08h190.84c-1.03,2.94-1.72,5.87-1.72,9.08Z"/>
    <path class="cls-1" d="m240.18,51.2v.68c0,4.11-.69,7.88-1.72,11.64-1.03,4.11-3.09,7.88-5.5,11.64-1.72,2.4-3.44,4.79-5.5,6.85-.69.69-1.38,1.37-2.06,2.06-2.75,2.4-6.19,4.79-9.63,6.51-3.44,1.71-7.56,3.08-11.35,3.77h0c-2.41.34-5.16.69-7.91.69-2.06,0-3.78,0-5.5-.34-4.13-.34-7.91-1.71-11.69-3.08-3.44-1.71-6.88-3.42-9.97-5.82-9.97-7.88-16.51-20.21-16.51-34.25,0-11.99,4.81-22.95,12.72-30.82,7.56-8.56,18.57-13.36,30.6-13.36s23.04,4.79,30.95,12.67c7.91,8.22,13.07,18.84,13.07,31.17Z"/>
  </g>
  <path class="cls-1" d="m259.44,341.48c-1.72.8-3.09,1.87-4.47,2.94-1.38,1.07-2.75,2.14-3.78,3.47-2.41,2.4-4.47,5.07-5.85,7.74l-169.52-101.17c1.72-.8,3.09-1.87,4.47-2.94,1.38-1.07,2.75-2.14,3.78-3.47,2.41-2.4,4.47-5.07,5.85-7.74l169.52,101.17Z"/>
  <g>
    <path class="cls-2" d="m473.71,460.8v4.03c-.4,5.24-1.61,10.48-3.61,15.32-1.61,4.43-4.02,8.06-6.83,11.69-1.2,1.61-2.81,3.63-4.42,5.24s-3.21,3.23-5.22,4.43c-8.83,6.45-19.28,10.48-30.92,10.48-28.51.4-51.4-22.58-51.4-51.2,0-14.11,5.62-27.01,14.86-36.28,9.24-9.27,22.09-14.92,36.14-14.92,5.22,0,10.04.81,14.46,2.02,4.42,1.21,8.43,3.23,12.45,5.64,3.21,2.02,6.43,4.43,9.24,7.26.4.4.8.81,1.2,1.61,3.21,3.63,6.02,7.66,8.43,12.09,2.01,4.03,3.61,8.47,4.42,12.9.8,2.82,1.2,6.45,1.2,9.68Z"/>
    <path class="cls-2" d="m222.99,460.63c0,1.38,0,2.75-.34,4.47-.34,4.13-1.37,7.91-2.74,11.69-2.05,5.85-5.48,11-9.93,15.13-7.88,7.91-18.84,12.72-30.83,12.72-23.98,0-43.84-19.6-43.84-44.01,0-12.03,4.8-23.04,12.67-30.95,7.88-7.91,18.84-12.72,30.83-12.72,6.51,0,12.33,1.38,17.81,3.78,3.43,1.72,6.85,3.78,9.93,6.19,1.03,1.03,2.05,2.06,3.43,3.09,1.71,1.72,3.43,3.44,4.8,5.5,3.77,5.16,6.51,11.35,7.54,18.22.68,2.06.68,4.47.68,6.88Z"/>
    <path class="cls-1" d="m404.2,460.8c0,3.2.69,6.14,1.72,9.08h-190.5c1.38-2.94,2.41-5.87,2.75-9.08,0-1.07.34-2.14.34-3.47,0-1.87-.34-3.74-.69-5.61h188.09c-1.38,2.94-1.72,5.87-1.72,9.08Z"/>
  </g>
  <path class="cls-1" d="m268.38,399.68l-58.46,55.52c-1.38-1.6-3.09-2.94-4.81-4.27-1.03-.8-2.06-1.6-3.44-2.4-3.09-1.87-6.19-3.47-9.97-4.81l58.46-55.52c2.41,2.4,5.16,4.81,7.91,6.67,3.44,1.87,6.53,3.47,10.32,4.81Z"/>
  <path class="cls-1" d="m190.67,68.13l-109,136.14c-.34-.27-.69-.53-1.03-1.07-2.41-1.87-5.16-3.47-7.91-4.81-3.44-1.6-6.88-2.94-10.66-3.74L169.35,61.19c3.09,1.87,6.19,3.47,9.97,4.54,3.09,1.07,7.22,2.14,11.35,2.4Z"/>
</svg>