<?xml version="1.0" encoding="utf-8"?>
<!-- Generator: Adobe Illustrator 27.7.0, SVG Export Plug-In . SVG Version: 6.00 Build 0)  -->
<svg version="1.1" id="Camada_1" xmlns="http://www.w3.org/2000/svg" xmlns:xlink="http://www.w3.org/1999/xlink" x="0px" y="0px"
	 viewBox="0 0 15.2 15.2" style="enable-background:new 0 0 15.2 15.2;" xml:space="preserve">
<style type="text/css">
	.st0{fill:#5384EB;}
</style>
<g>
	<path class="st0" d="M8.2,9.2c0,0-0.2-0.1-0.3-0.2l0,0c0,0-0.1,0-0.1-0.1C7.8,8.9,7.8,8.9,7.7,8.9c-0.1,0-0.1,0-0.1,0
		c0,0-0.1,0-0.1,0c-0.1,0-0.1,0-0.2,0.1c0,0,0,0-0.1,0.1C7.1,9.1,6.9,9.2,6.9,9.2l0,0l0,0c0,0,0.2,0.1,0.2,0.2
		c0.1,0.1,0.1,0.1,0.2,0.1c0.1,0,0.2,0,0.2,0c0,0,0.1,0,0.2,0c0.1,0,0.2,0,0.2-0.1C8.1,9.3,8.2,9.2,8.2,9.2L8.2,9.2L8.2,9.2L8.2,9.2
		z"/>
	<path class="st0" d="M7.5,8.3c0,0.1-0.1,0.1-0.1,0.1c0,0-0.1-0.1-0.1-0.1c-0.1,0,0.1-0.1,0.1-0.1C7.4,8.2,7.5,8.3,7.5,8.3L7.5,8.3z
		"/>
	<path class="st0" d="M7.7,8.3c0,0.1,0.1,0.1,0.1,0.1c0,0,0.1-0.1,0.1-0.1c0.1,0-0.1-0.1-0.1-0.1C7.8,8.2,7.7,8.3,7.7,8.3L7.7,8.3z"
		/>
	<path class="st0" d="M15.2,5.7l-0.3-0.3l0,0l-1-1l-0.3,0.3l1,1L14,6.3l-1-1l-0.3,0.3l1,1L13,7.3L7.9,2.2l0.7-0.7l1,1l0.3-0.3l-1-1
		l0.6-0.6l1,1l0.3-0.3l-1-1l0,0L9.4,0L7.6,1.9L5.7,0L4.4,1.3l0.3,0.3l1-1l0.6,0.6l-1,1l0.3,0.3l1-1l0.7,0.7L2.2,7.3L1.5,6.6l1-1
		L2.2,5.2l-1,1L0.6,5.7l1-1L1.3,4.4l-1,1L0,5.7l1.9,1.9L0,9.4l0.3,0.3l0,0l1,1l0.3-0.3l-1-1l0.6-0.6l1,1l0.3-0.3l-1-1l0.7-0.7
		L7.3,13l-0.7,0.7l-1-1l-0.3,0.3l1,1l-0.6,0.6l-1-1l-0.3,0.3l1,1l0,0l0.3,0.3l1.9-1.9l1.9,1.9l0.3-0.3l1-1l-0.3-0.3l-1,1L8.9,14l1-1
		l-0.3-0.3l-1,1L7.9,13L13,7.9l0.7,0.7l-1,1l0.3,0.3l1-1l0.6,0.6l-1,1l0.3,0.3l1.3-1.3l-1.9-1.9L15.2,5.7L15.2,5.7z M7.6,12.7
		L2.5,7.6l5.1-5.1l5.1,5.1L7.6,12.7L7.6,12.7z"/>
	<path class="st0" d="M10,6.5L10,6.5c0-0.1,0-0.1,0-0.2c0-0.5-0.2-0.9-0.7-1.3C8.9,4.7,8.3,4.5,7.6,4.5h0l-0.1,0l-0.1,0v0
		c-0.6,0-1.1,0.2-1.5,0.6C5.4,5.4,5.2,5.9,5.2,6.4c0,0,0,0.1,0,0.2c0,0.8,0,2.7,0.9,3.6c0.4,0.4,0.8,0.6,1.4,0.6c0,0,0,0,0.1,0h0
		c0.6,0,1.1-0.2,1.5-0.5C10,9.2,10,7.3,10,6.5L10,6.5z M9.6,6.4c0,0,0,0.1,0,0.2v0c0,0.2,0,0.5,0,0.9L9.1,7.2C9,7.2,8.9,7,8.6,7V6.1
		l0.5-0.6C9.4,5.7,9.6,6.1,9.6,6.4L9.6,6.4z M5.6,6.5c0-0.1,0-0.1,0-0.2c0-0.3,0.1-0.6,0.4-0.9l0.5,0.6V7C6.3,7,6.1,7.2,6.1,7.2
		L5.6,7.4C5.6,7,5.6,6.7,5.6,6.5L5.6,6.5z M8.8,9.8c-0.3,0.3-0.7,0.4-1.2,0.4h0h0c-0.5,0-0.9-0.1-1.2-0.4C5.9,9.3,5.7,8.4,5.6,7.6
		l0.5-0.2c0,0,0.1,0.1,0.2,0.1c0,0,0.1,0,0.2,0c0.1,0,0.2,0,0.3,0c0,0,0.1,0,0.1,0c0,0,0.1,0,0.1,0c0,0,0,0,0,0l0,0c0,0,0,0,0,0l0,0
		c0,0,0,0,0.1,0c0,0,0.1-0.1,0.1-0.2l0,0c0,0-0.2-0.3-0.4-0.3V6L6.2,5.4C6.5,5.1,7,4.9,7.6,4.9h0c0.6,0,1.1,0.2,1.4,0.5L8.4,6v1
		C8.2,7.1,8,7.3,8,7.3c0,0,0,0.1,0.1,0.2c0,0,0,0,0.1,0l0,0c0,0,0,0,0,0l0,0l0,0c0,0,0,0,0,0c0,0,0,0,0.1,0c0,0,0,0,0.1,0
		c0.1,0,0.2,0,0.3,0c0.1,0,0.1,0,0.2,0C8.9,7.5,9,7.5,9,7.4l0.5,0.2C9.5,8.4,9.3,9.3,8.8,9.8L8.8,9.8z"/>
	<path class="st0" d="M0.9,7.4c-0.1-0.1-0.4-0.1-0.5,0c-0.1,0.1-0.1,0.4,0,0.5C0.5,8,0.8,8,0.9,7.9C1,7.7,1,7.5,0.9,7.4z M0.5,7.7
		c-0.1-0.1-0.1-0.2,0-0.2c0.1-0.1,0.2-0.1,0.2,0c0.1,0.1,0.1,0.2,0,0.2C0.7,7.8,0.6,7.8,0.5,7.7z"/>
	<path class="st0" d="M7.8,0.9c0.1-0.1,0.1-0.4,0-0.5c-0.1-0.1-0.4-0.1-0.5,0c-0.1,0.1-0.1,0.4,0,0.5C7.4,1,7.7,1,7.8,0.9z M7.4,0.5
		c0.1-0.1,0.2-0.1,0.2,0c0.1,0.1,0.1,0.2,0,0.2c-0.1,0.1-0.2,0.1-0.2,0C7.4,0.7,7.4,0.6,7.4,0.5z"/>
	<path class="st0" d="M14.3,7.8c0.1,0.1,0.4,0.1,0.5,0c0.1-0.1,0.1-0.4,0-0.5c-0.1-0.1-0.4-0.1-0.5,0C14.1,7.4,14.1,7.7,14.3,7.8z
		 M14.6,7.4c0.1,0.1,0.1,0.2,0,0.2c-0.1,0.1-0.2,0.1-0.2,0c-0.1-0.1-0.1-0.2,0-0.2C14.5,7.4,14.6,7.4,14.6,7.4z"/>
	<path class="st0" d="M7.4,14.3c-0.1,0.1-0.1,0.4,0,0.5c0.1,0.1,0.4,0.1,0.5,0c0.1-0.1,0.1-0.4,0-0.5C7.7,14.1,7.5,14.1,7.4,14.3z
		 M7.7,14.6c-0.1,0.1-0.2,0.1-0.2,0c-0.1-0.1-0.1-0.2,0-0.2c0.1-0.1,0.2-0.1,0.2,0C7.8,14.5,7.8,14.6,7.7,14.6z"/>
</g>
</svg>
