<?xml version="1.0" encoding="UTF-8"?>
<!DOCTYPE svg PUBLIC "-//W3C//DTD SVG 1.1//EN" "http://www.w3.org/Graphics/SVG/1.1/DTD/svg11.dtd">
<svg xmlns="http://www.w3.org/2000/svg" version="1.1" width="500px" height="500px" style="shape-rendering:geometricPrecision; text-rendering:geometricPrecision; image-rendering:optimizeQuality; fill-rule:evenodd; clip-rule:evenodd" xmlns:xlink="http://www.w3.org/1999/xlink">
<g><path style="opacity:1" fill="#6bcae0" d="M 144.5,183.5 C 142.5,184.833 140.5,184.833 138.5,183.5C 125.376,180.945 112.043,180.112 98.5,181C 97.9011,182.622 97.2344,184.122 96.5,185.5C 96.2606,183.533 96.5939,181.699 97.5,180C 103.859,179.831 110.193,179.331 116.5,178.5C 109.119,178.144 102.119,177.144 95.5,175.5C 104.945,176.374 114.278,176.708 123.5,176.5C 131.19,176.724 138.523,175.891 145.5,174C 149.594,177.758 149.26,180.924 144.5,183.5 Z"/></g>
<g><path style="opacity:1" fill="#27afd2" d="M 95.5,175.5 C 102.119,177.144 109.119,178.144 116.5,178.5C 110.193,179.331 103.859,179.831 97.5,180C 96.5939,181.699 96.2606,183.533 96.5,185.5C 94.8958,186.287 94.2291,187.62 94.5,189.5C 92.0281,189.942 89.5281,190.275 87,190.5C 84.8794,190.302 83.0461,189.636 81.5,188.5C 75.7858,184.38 75.1191,179.546 79.5,174C 85.3877,169.081 90.7211,169.581 95.5,175.5 Z"/></g>
<g><path style="opacity:0.03" fill="#fcfcfe" d="M 158.5,205.5 C 158.5,205.167 158.5,204.833 158.5,204.5C 162.767,204.797 166.934,204.464 171,203.5C 171.667,197.833 171.667,192.167 171,186.5C 170.617,185.944 170.117,185.611 169.5,185.5C 169.5,185.167 169.5,184.833 169.5,184.5C 170.15,184.196 170.817,183.863 171.5,183.5C 172.497,190.803 172.831,198.137 172.5,205.5C 167.833,205.5 163.167,205.5 158.5,205.5 Z"/></g>
<g><path style="opacity:0.238" fill="#c0d2e8" d="M 138.5,183.5 C 140.5,184.833 142.5,184.833 144.5,183.5C 152.65,184.493 160.983,184.826 169.5,184.5C 169.5,184.833 169.5,185.167 169.5,185.5C 154.167,185.5 138.833,185.5 123.5,185.5C 128.5,184.833 133.5,184.167 138.5,183.5 Z"/></g>
<g><path style="opacity:1" fill="#164dae" d="M 123.5,185.5 C 138.833,185.5 154.167,185.5 169.5,185.5C 170.117,185.611 170.617,185.944 171,186.5C 171.667,192.167 171.667,197.833 171,203.5C 166.934,204.464 162.767,204.797 158.5,204.5C 157.503,223.659 157.17,242.993 157.5,262.5C 162.263,262.226 166.93,262.559 171.5,263.5C 172.651,268.65 172.817,273.984 172,279.5C 171.626,280.416 171.126,281.25 170.5,282C 154.994,282.828 139.661,282.661 124.5,281.5C 123.542,275.256 123.209,268.923 123.5,262.5C 127.833,262.5 132.167,262.5 136.5,262.5C 136.5,250.5 136.5,238.5 136.5,226.5C 136.5,225.833 136.5,225.167 136.5,224.5C 138.074,222.898 138.741,220.898 138.5,218.5C 138.5,218.167 138.5,217.833 138.5,217.5C 139.906,217.027 140.573,216.027 140.5,214.5C 141.906,214.027 142.573,213.027 142.5,211.5C 143.833,209.5 145.5,207.833 147.5,206.5C 148.766,205.91 150.099,205.41 151.5,205C 142.506,204.5 133.506,204.334 124.5,204.5C 123.542,198.256 123.209,191.923 123.5,185.5 Z"/></g>
<g><path style="opacity:1" fill="#3ab5d6" d="M 215.5,256.5 C 214.928,254.745 214.094,253.078 213,251.5C 211.659,254.022 210.826,256.689 210.5,259.5C 205.663,272.338 196.663,280.671 183.5,284.5C 181.833,284.5 180.167,284.5 178.5,284.5C 178.5,283.5 178.5,282.5 178.5,281.5C 189.224,252.164 200.058,222.83 211,193.5C 211.763,190.53 213.263,188.03 215.5,186C 221.167,185.333 226.833,185.333 232.5,186C 233.333,186.833 234.167,187.667 235,188.5C 246.308,219.427 257.808,250.261 269.5,281C 268.833,281.667 268.167,282.333 267.5,283C 260.5,283.667 253.5,283.667 246.5,283C 243.833,277 241.167,271 238.5,265C 233.454,264.184 228.454,263.184 223.5,262C 220.379,260.694 217.713,258.86 215.5,256.5 Z M 228.5,229.5 C 228.259,231.898 228.926,233.898 230.5,235.5C 230.466,238.199 231.133,240.699 232.5,243C 232.167,243.333 231.833,243.667 231.5,244C 227.129,244.828 222.795,244.661 218.5,243.5C 217.652,241.591 217.318,239.591 217.5,237.5C 219.437,232.292 221.937,227.292 225,222.5C 225.898,225.069 227.065,227.402 228.5,229.5 Z"/></g>
<g><path style="opacity:1" fill="#32b4d5" d="M 317.5,186.5 C 319.905,187.768 322.572,188.435 325.5,188.5C 333.754,190.92 339.254,196.253 342,204.5C 344.757,215.577 343.757,226.244 339,236.5C 332.412,245.206 323.579,249.206 312.5,248.5C 307.5,248.5 302.5,248.5 297.5,248.5C 297.5,253.167 297.5,257.833 297.5,262.5C 297.032,273.458 291.698,280.791 281.5,284.5C 279.833,284.5 278.167,284.5 276.5,284.5C 276.5,252.167 276.5,219.833 276.5,187.5C 276.611,186.883 276.944,186.383 277.5,186C 291.006,185.173 304.34,185.34 317.5,186.5 Z M 311.5,205.5 C 320.436,209.018 322.936,215.351 319,224.5C 317.5,226.469 315.667,227.802 313.5,228.5C 308.488,230.041 303.655,229.707 299,227.5C 298.205,220.782 298.372,214.116 299.5,207.5C 300.025,206.808 300.692,206.308 301.5,206C 304.817,205.502 308.15,205.335 311.5,205.5 Z"/></g>
<g><path style="opacity:0.025" fill="#e0f0f5" d="M 317.5,186.5 C 320.495,186.294 323.162,186.96 325.5,188.5C 322.572,188.435 319.905,187.768 317.5,186.5 Z"/></g>
<g><path style="opacity:1" fill="#3bb5d6" d="M 382.5,256.5 C 380.338,249.812 379.005,250.145 378.5,257.5C 372.876,272.955 362.043,282.622 346,286.5C 345.13,285.892 344.63,285.059 344.5,284C 356.396,250.968 369.063,218.302 382.5,186C 388.167,185.333 393.833,185.333 399.5,186C 400.333,186.833 401.167,187.667 402,188.5C 413.222,219.276 424.722,249.943 436.5,280.5C 436.023,281.478 435.357,282.311 434.5,283C 427.833,283.667 421.167,283.667 414.5,283C 413.692,282.692 413.025,282.192 412.5,281.5C 410.836,275.663 408.503,270.163 405.5,265C 396.644,264.997 388.977,262.163 382.5,256.5 Z M 392.5,226.5 C 393.728,227.306 394.728,228.306 395.5,229.5C 396.262,233.785 397.595,237.785 399.5,241.5C 399.586,242.496 399.252,243.329 398.5,244C 393.833,244.667 389.167,244.667 384.5,244C 383.748,243.329 383.414,242.496 383.5,241.5C 384.404,240.791 384.737,239.791 384.5,238.5C 386.896,233.359 389.063,228.026 391,222.5C 391.921,223.708 392.421,225.042 392.5,226.5 Z"/></g>
<g><path style="opacity:0.718" fill="#648ecb" d="M 123.5,185.5 C 123.209,191.923 123.542,198.256 124.5,204.5C 123.182,201.742 122.515,198.576 122.5,195C 122.502,191.648 122.835,188.482 123.5,185.5 Z"/></g>
<g><path style="opacity:1" fill="#64c8e3" d="M 96.5,185.5 C 96.3505,186.552 96.5172,187.552 97,188.5C 101.333,193.5 105.667,198.5 110,203.5C 112.474,206.356 115.474,208.356 119,209.5C 120.925,215.016 119.091,218.349 113.5,219.5C 111.945,219.278 110.611,218.611 109.5,217.5C 96.3383,222.752 83.005,227.419 69.5,231.5C 70.4935,229.146 69.4935,228.146 66.5,228.5C 79.957,223.287 93.457,217.954 107,212.5C 107.667,210.833 107.667,209.167 107,207.5C 102.667,202.5 98.3333,197.5 94,192.5C 91.2053,191.217 88.3719,191.217 85.5,192.5C 77.2494,202.683 69.2494,213.016 61.5,223.5C 60.5655,224.568 60.2322,225.901 60.5,227.5C 58.0876,227.756 56.4209,226.756 55.5,224.5C 52.9159,225.393 50.2492,225.726 47.5,225.5C 49.5563,224.784 51.723,224.117 54,223.5C 63.7862,212.226 72.9529,200.56 81.5,188.5C 83.0461,189.636 84.8794,190.302 87,190.5C 89.5281,190.275 92.0281,189.942 94.5,189.5C 94.2291,187.62 94.8958,186.287 96.5,185.5 Z"/></g>
<g><path style="opacity:0.03" fill="#fafbfd" d="M 124.5,204.5 C 133.506,204.334 142.506,204.5 151.5,205C 150.099,205.41 148.766,205.91 147.5,206.5C 139.833,205.833 132.167,205.167 124.5,204.5 Z"/></g>
<g><path style="opacity:0.18" fill="#bbd2d7" d="M 311.5,205.5 C 308.15,205.335 304.817,205.502 301.5,206C 300.692,206.308 300.025,206.808 299.5,207.5C 298.372,214.116 298.205,220.782 299,227.5C 303.655,229.707 308.488,230.041 313.5,228.5C 308.447,230.26 303.114,230.927 297.5,230.5C 297.5,221.833 297.5,213.167 297.5,204.5C 302.363,204.181 307.03,204.514 311.5,205.5 Z"/></g>
<g><path style="opacity:0.447" fill="#a4b9de" d="M 142.5,211.5 C 142.573,213.027 141.906,214.027 140.5,214.5C 140.427,212.973 141.094,211.973 142.5,211.5 Z"/></g>
<g><path style="opacity:0.482" fill="#c9d5ea" d="M 140.5,214.5 C 140.573,216.027 139.906,217.027 138.5,217.5C 138.427,215.973 139.094,214.973 140.5,214.5 Z"/></g>
<g><path style="opacity:0.047" fill="#d0d7d9" d="M 395.5,229.5 C 394.728,228.306 393.728,227.306 392.5,226.5C 392.421,225.042 391.921,223.708 391,222.5C 389.063,228.026 386.896,233.359 384.5,238.5C 386.353,230.771 388.52,223.104 391,215.5C 393.406,219.886 394.906,224.552 395.5,229.5 Z"/></g>
<g><path style="opacity:0.694" fill="#becbe8" d="M 138.5,218.5 C 138.741,220.898 138.074,222.898 136.5,224.5C 136.259,222.102 136.926,220.102 138.5,218.5 Z"/></g>
<g><path style="opacity:1" fill="#38b2d5" d="M 60.5,227.5 C 61.7079,228.234 63.0413,228.567 64.5,228.5C 65.1667,228.5 65.8333,228.5 66.5,228.5C 69.4935,228.146 70.4935,229.146 69.5,231.5C 67.9505,232.441 66.2838,233.107 64.5,233.5C 63.5655,234.568 63.2322,235.901 63.5,237.5C 61.2188,237.077 59.5521,237.744 58.5,239.5C 53.453,244.807 48.2863,244.807 43,239.5C 40.2579,233.345 41.7579,228.679 47.5,225.5C 50.2492,225.726 52.9159,225.393 55.5,224.5C 56.4209,226.756 58.0876,227.756 60.5,227.5 Z"/></g>
<g><path style="opacity:0.145" fill="#d4dbdb" d="M 228.5,229.5 C 227.065,227.402 225.898,225.069 225,222.5C 221.937,227.292 219.437,232.292 217.5,237.5C 219.158,230.026 221.324,222.692 224,215.5C 226.007,220.02 227.507,224.687 228.5,229.5 Z"/></g>
<g><path style="opacity:0.035" fill="#ecd3d4" d="M 61.5,223.5 C 61.7215,225.664 62.7215,227.33 64.5,228.5C 63.0413,228.567 61.7079,228.234 60.5,227.5C 60.2322,225.901 60.5655,224.568 61.5,223.5 Z"/></g>
<g><path style="opacity:0.023" fill="#f1f4fa" d="M 136.5,226.5 C 136.5,238.5 136.5,250.5 136.5,262.5C 132.167,262.5 127.833,262.5 123.5,262.5C 127.298,261.517 131.298,261.183 135.5,261.5C 135.172,249.655 135.505,237.988 136.5,226.5 Z"/></g>
<g><path style="opacity:0.161" fill="#cdcdcd" d="M 392.5,226.5 C 392.489,229.001 391.822,229.168 390.5,227C 391.094,226.536 391.761,226.369 392.5,226.5 Z"/></g>
<g><path style="opacity:0.008" fill="#fefffe" d="M 67.5,234.5 C 68.8333,235.167 68.8333,235.167 67.5,234.5 Z"/></g>
<g><path style="opacity:0.302" fill="#b6cae3" d="M 158.5,204.5 C 158.5,204.833 158.5,205.167 158.5,205.5C 158.5,224.167 158.5,242.833 158.5,261.5C 163.294,260.903 167.627,261.57 171.5,263.5C 166.93,262.559 162.263,262.226 157.5,262.5C 157.17,242.993 157.503,223.659 158.5,204.5 Z"/></g>
<g><path style="opacity:0.059" fill="#dce0df" d="M 230.5,235.5 C 232.277,238.505 233.277,241.838 233.5,245.5C 227.5,245.5 221.5,245.5 215.5,245.5C 215.294,242.505 215.96,239.838 217.5,237.5C 217.318,239.591 217.652,241.591 218.5,243.5C 222.795,244.661 227.129,244.828 231.5,244C 231.833,243.667 232.167,243.333 232.5,243C 231.133,240.699 230.466,238.199 230.5,235.5 Z"/></g>
<g><path style="opacity:0.045" fill="#e5e8e7" d="M 383.5,241.5 C 383.414,242.496 383.748,243.329 384.5,244C 389.167,244.667 393.833,244.667 398.5,244C 399.252,243.329 399.586,242.496 399.5,241.5C 400.249,242.531 400.915,243.698 401.5,245C 395.175,245.5 388.842,245.666 382.5,245.5C 382.232,243.901 382.566,242.568 383.5,241.5 Z"/></g>
<g><path style="opacity:0.18" fill="#d7dcdc" d="M 312.5,248.5 C 308.635,249.224 304.635,249.891 300.5,250.5C 298.982,254.43 297.982,258.43 297.5,262.5C 297.5,257.833 297.5,253.167 297.5,248.5C 302.5,248.5 307.5,248.5 312.5,248.5 Z"/></g>
<g><path style="opacity:0.059" fill="#d2d9da" d="M 382.5,256.5 C 381.167,256.833 379.833,257.167 378.5,257.5C 379.005,250.145 380.338,249.812 382.5,256.5 Z"/></g>
<g><path style="opacity:0.18" fill="#c5dadc" d="M 276.5,187.5 C 276.5,219.833 276.5,252.167 276.5,284.5C 278.167,284.5 279.833,284.5 281.5,284.5C 280.122,285.234 278.622,285.901 277,286.5C 276.667,286.167 276.333,285.833 276,285.5C 275.169,252.664 275.336,219.997 276.5,187.5 Z"/></g>
<g><path style="opacity:0.075" fill="#d2d9da" d="M 215.5,256.5 C 213.589,257.075 211.922,258.075 210.5,259.5C 210.826,256.689 211.659,254.022 213,251.5C 214.094,253.078 214.928,254.745 215.5,256.5 Z"/></g>
<g><path style="opacity:0.729" fill="#89a5d6" d="M 123.5,262.5 C 123.209,268.923 123.542,275.256 124.5,281.5C 122.525,277.476 121.525,272.976 121.5,268C 121.667,266.5 121.833,265 122,263.5C 122.383,262.944 122.883,262.611 123.5,262.5 Z"/></g>
<g><path style="opacity:0.553" fill="#cde8ee" d="M 178.5,281.5 C 178.5,282.5 178.5,283.5 178.5,284.5C 180.167,284.5 181.833,284.5 183.5,284.5C 181.684,285.621 179.684,286.121 177.5,286C 177.167,285.667 176.833,285.333 176.5,285C 177.085,283.698 177.751,282.531 178.5,281.5 Z"/></g>
<g><path style="opacity:1" fill="#65c6e3" d="M 64.5,233.5 C 66.244,235.75 68.244,237.917 70.5,240C 81.5,248.333 92.5,256.667 103.5,265C 110.672,263.997 113.339,266.83 111.5,273.5C 108.021,275.386 104.854,277.72 102,280.5C 98.6667,284.5 95.3333,288.5 92,292.5C 91.5172,293.448 91.3505,294.448 91.5,295.5C 105.516,295.833 119.516,295.499 133.5,294.5C 135.828,289.377 139.328,288.377 144,291.5C 146.476,296.731 144.809,300.064 139,301.5C 138.098,301.257 137.265,300.923 136.5,300.5C 136.5,300.167 136.5,299.833 136.5,299.5C 141.014,298.546 142.014,296.379 139.5,293C 138.207,292.51 136.873,292.343 135.5,292.5C 135.67,293.822 135.337,294.989 134.5,296C 120.171,296.5 105.837,296.667 91.5,296.5C 91.2053,298.735 91.5386,300.735 92.5,302.5C 91.8333,305.167 90.1667,306.833 87.5,307.5C 88.4278,304.87 89.4278,302.204 90.5,299.5C 89.5574,297.528 89.2241,295.695 89.5,294C 84.7442,292.556 80.9109,293.723 78,297.5C 77.7248,300.412 76.8914,303.079 75.5,305.5C 72.1986,299.554 73.5319,294.721 79.5,291C 82.1667,290.667 84.8333,290.333 87.5,290C 91.6667,285.167 95.8333,280.333 100,275.5C 100.875,274.127 101.375,272.627 101.5,271C 100.252,268.743 98.5853,266.743 96.5,265C 84.3333,256.167 72.1667,247.333 60,238.5C 59.6174,239.056 59.1174,239.389 58.5,239.5C 59.5521,237.744 61.2188,237.077 63.5,237.5C 63.2322,235.901 63.5655,234.568 64.5,233.5 Z"/></g>
<g><path style="opacity:1" fill="#1cbdde" d="M 136.5,299.5 C 121.462,298.85 106.795,299.517 92.5,301.5C 92.5,301.833 92.5,302.167 92.5,302.5C 91.5386,300.735 91.2053,298.735 91.5,296.5C 105.837,296.667 120.171,296.5 134.5,296C 135.337,294.989 135.67,293.822 135.5,292.5C 136.873,292.343 138.207,292.51 139.5,293C 142.014,296.379 141.014,298.546 136.5,299.5 Z"/></g>
<g><path style="opacity:1" fill="#32b1d6" d="M 87.5,307.5 C 86.3588,308.339 85.0255,309.006 83.5,309.5C 80.2855,309.05 77.6189,307.717 75.5,305.5C 76.8914,303.079 77.7248,300.412 78,297.5C 80.9109,293.723 84.7442,292.556 89.5,294C 89.2241,295.695 89.5574,297.528 90.5,299.5C 89.4278,302.204 88.4278,304.87 87.5,307.5 Z"/></g>
<g><path style="opacity:0.04" fill="#fdfefe" d="M 136.5,299.5 C 136.5,299.833 136.5,300.167 136.5,300.5C 121.755,300.184 107.088,300.517 92.5,301.5C 106.795,299.517 121.462,298.85 136.5,299.5 Z"/></g>
</svg>
