<?xml version="1.0" encoding="UTF-8"?>
<svg id="Camada_1" data-name="Camada 1" xmlns="http://www.w3.org/2000/svg" viewBox="0 0 1391.39 1916.13">
  <defs>
    <style>
      .cls-1 {
        fill: #fff;
      }
    </style>
  </defs>
  <path class="cls-1" d="m714.96,82.08c12.38-12.38,12.38-32.45,0-44.82-12.38-12.38-32.45-12.38-44.82,0-12.38,12.38-12.38,32.45,0,44.82,12.38,12.38,32.45,12.38,44.82,0Zm-32.09-32.09c5.35-5.35,14.01-5.35,19.36,0,5.35,5.35,5.35,14.01,0,19.36-5.35,5.35-14.01,5.35-19.36,0-5.35-5.35-5.35-14.01,0-19.36Z"/>
  <path class="cls-1" d="m1309.32,714.97c12.38,12.38,32.45,12.38,44.82,0,12.38-12.38,12.38-32.45,0-44.82-12.38-12.38-32.45-12.38-44.82,0-12.38,12.38-12.38,32.45,0,44.82Zm32.09-32.09c5.35,5.35,5.35,14.01,0,19.36-5.35,5.35-14.01,5.35-19.36,0-5.35-5.35-5.35-14.01,0-19.36,5.35-5.35,14.01-5.35,19.36,0Z"/>
  <path class="cls-1" d="m755.23,844.92c-1.66-.84-14.36-7.35-24.05-14.32h0c-2.7-1.94-4.98-3.75-7.01-5.35-6.18-4.89-10.27-8.13-16.39-7.55-5.87.53-10.29,2.29-12.08,3.1-1.78-.82-6.21-2.57-12.08-3.1-6.13-.57-10.21,2.67-16.39,7.56-2.03,1.6-4.31,3.41-7.01,5.35-9.7,6.97-22.4,13.48-24.06,14.32l-4.25,1.07,3.99,2.24c.16.09,16.11,9.06,21.69,14.01,5.67,5.02,10.77,8.88,20.37,9.06,8.63.16,17.55.65,17.84.66.09,0,9-.5,17.64-.66,9.59-.19,14.69-4.04,20.37-9.06,5.58-4.94,21.52-13.91,21.68-14.01l3.99-2.24-4.25-1.07Z"/>
  <path class="cls-1" d="m685.31,765.04c0,5.73-11.27,4.63-13.26,4.63-1.86,0-4.72-5.83-11.79-4.63-5.65.96,5.61-10.38,12.52-10.38s12.52,4.65,12.52,10.38Z"/>
  <path class="cls-1" d="m706.09,765.04c0,5.73,11.27,4.63,13.26,4.63,1.86,0,4.72-5.83,11.79-4.63,5.65.96-5.61-10.38-12.52-10.38-6.92,0-12.52,4.65-12.52,10.38Z"/>
  <path class="cls-1" d="m1391.39,525.19l-123.43-123.43-29.08,29.08,94.36,94.35-50.91,50.91-94.36-94.36-29.07,29.08,94.35,94.36-61.44,61.44-467.04-467.03,61.45-61.45,94.36,94.36,29.07-29.08-94.35-94.36,50.9-50.9,94.36,94.36,29.08-29.08L866.2,0l-170.51,170.51L525.19,0l-123.44,123.44,29.08,29.08,94.36-94.36,50.9,50.9-94.35,94.36,29.07,29.08,94.36-94.36,61.45,61.45-467.04,467.03-61.44-61.44,94.35-94.36-29.07-29.08-94.36,94.36-50.91-50.91,94.36-94.35-29.08-29.08L0,525.19l170.5,170.51L0,866.21l27.52,27.52,1.56,1.55,94.35,94.36,29.08-29.08-94.36-94.35,50.91-50.91,94.36,94.36,29.07-29.08-94.35-94.36,61.44-61.44,467.04,467.03-61.45,61.45-94.36-94.36-29.07,29.08,94.35,94.36-50.9,50.9-94.36-94.36-29.08,29.08,123.44,123.44,170.5-170.51,170.51,170.51,123.44-123.44-29.08-29.08-94.36,94.36-50.9-50.9,94.35-94.36-29.07-29.08-94.36,94.36-61.45-61.45,467.04-467.03,61.44,61.44-94.35,94.36,29.07,29.08,94.36-94.36,50.91,50.91-94.36,94.35,29.08,29.08,94.35-94.36,1.56-1.55,27.52-27.52-170.5-170.51,170.5-170.51Zm-695.7,637.54l-467.03-467.03,467.03-467.04,467.04,467.04-467.04,467.03Z"/>
  <path class="cls-1" d="m914.91,597.87l-6.61.07,6.61-.08v-1.03c-.07-5.18-.12-9.73-.12-13.57,0-41.94-21.87-84.63-59.99-117.11-41.13-35.03-97.45-54.42-158.49-54.59l-.95-.02-12.13.09-6.55.26v.32c-53.88,3.68-103.43,22.71-140.09,53.94-38.12,32.48-59.99,75.16-59.99,117.11,0,4.09-.06,8.99-.12,14.61-.87,73.2-2.91,244.63,84.78,331.49,33.83,33.51,77.28,50.5,129.15,50.5,1.69,0,3.39-.02,5.22-.06h.25c54.25,1.13,99.41-15.92,134.24-50.43,87.69-86.86,85.66-258.29,84.79-331.5Zm-401.06.43c.06-5.78.12-10.83.12-15.04,0-27.67,13.36-56.22,37.17-79.84l47.19,57.1v81.47c-20.57,2.04-36.36,16.9-41.71,22.6l-41.58,13.79c-1.76-32.61-1.42-61.11-1.19-80.08Zm289.97,304.52c-27.49,27.23-63.79,40.58-107.68,39.61h-1.14s-.42.01-.42.01c-43.5.96-79.51-12.38-107.01-39.62-48.97-48.5-65.76-134.14-71.3-205.88l47.01-15.59c4.24,2.62,10.46,5.61,18.79,7.54,4.39,1.01,9.54,1.5,15.74,1.5,9.67,0,19.94-1.25,27.5-2.17,3-.36,5.6-.68,7.41-.81,3.63-.29,5.7.07,6.63.32.47.26.99.47,1.58.65l.7.19s.38.1,1.07.18l.45.05c2.05.17,4-.34,5.52-1.44,4.48-2.69,8.1-9.85,6.97-13.8l-.06-.19c-.68-2.03-15.44-23.33-39.24-29.78v-89.56l-51.71-62.56c31.75-25.2,76.87-42.39,130.75-42.55h.59c53.91.16,99.02,17.36,130.79,42.55l-51.7,62.56v89.55c-23.81,6.46-38.57,27.76-39.25,29.79-1.31,3.91,2.35,11.25,6.9,13.99,1.5,1.09,3.39,1.6,5.34,1.45l.61-.05c.65-.08,1.1-.18,1.11-.19l1.29-.32.18-.14c.28-.12.54-.24.8-.38.93-.25,3.01-.61,6.67-.32,1.79.13,4.45.46,7.56.84,7.45.9,17.64,2.14,27.3,2.14,6.2,0,11.35-.49,15.75-1.5,8.34-1.93,14.55-4.92,18.79-7.54l47.02,15.59c-5.55,71.74-22.34,157.38-71.31,205.88Zm72.53-224.44l-41.58-13.79c-5.37-5.7-21.16-20.54-41.71-22.6v-81.47l47.19-57.09c23.8,23.62,37.17,52.16,37.17,79.83,0,4.05.05,8.89.12,14.39v.65c.23,18.97.57,47.47-1.19,80.08Z"/>
  <path class="cls-1" d="m82.07,676.43c-12.38-12.38-32.45-12.38-44.82,0-12.38,12.38-12.38,32.45,0,44.82s32.45,12.38,44.82,0c12.38-12.38,12.38-32.45,0-44.82Zm-32.09,32.09c-5.35-5.35-5.35-14.01,0-19.36,5.35-5.35,14.01-5.35,19.36,0,5.35,5.35,5.35,14.01,0,19.36-5.35,5.35-14.01,5.35-19.36,0Z"/>
  <path class="cls-1" d="m676.43,1309.32c-12.38,12.38-12.38,32.45,0,44.82,12.38,12.38,32.45,12.38,44.82,0,12.38-12.38,12.38-32.45,0-44.82-12.38-12.38-32.45-12.38-44.82,0Zm32.09,32.09c-5.35,5.35-14.01,5.35-19.36,0-5.35-5.35-5.35-14.01,0-19.36,5.35-5.35,14.01-5.35,19.36,0,5.35,5.35,5.35,14.01,0,19.36Z"/>
  <path class="cls-1" d="m70.16,1550.92c0-30.66-19.75-44.63-38.09-44.63-9.32,0-17.55,2.63-24.47,7.82l-7.6,5.7v391.3h211.86v-65.64H70.16v-294.56Z"/>
  <path class="cls-1" d="m371.54,1620.36c-38.78,0-71.58,9.65-100.26,29.51l-14.58,10.1,32.27,54.22,16.84-12.21c16.7-12.1,36.72-17.99,61.21-17.99,27.7,0,42.03,14.98,43.65,45.73-16.68-1.23-31.58-1.83-45.16-1.83-36.18,0-65.34,7.99-86.67,23.76-22.79,16.85-34.84,41.44-34.84,71.12s8.9,51.76,25.73,68.27c16.74,16.42,40.65,25.09,69.14,25.09,26.76,0,53.28-9.38,74.91-25.49,1.41,4.5,3.42,8.52,6.02,12.01,6.48,8.69,16.11,13.48,27.1,13.48,9.51,0,18.15-2.7,24.97-7.82l7.6-5.7v-174.32c0-32.52-10.07-59.77-29.12-78.82-19.05-19.05-46.31-29.12-78.82-29.12Zm39.27,170.71c-.88,40.43-38.3,61.95-65.4,61.95-22.04,0-32.76-10.39-32.76-31.75,0-9.7,3.47-16.65,10.93-21.87,9.22-6.46,23.9-9.88,42.43-9.88,14.21,0,29.66.54,44.8,1.56Z"/>
  <path class="cls-1" d="m595.45,1532.42c-23.69,0-39.6,15.71-39.6,39.1s15.92,38.09,39.6,38.09,39.6-15.31,39.6-38.09-15.92-39.1-39.6-39.1Z"/>
  <rect class="cls-1" x="561.37" y="1625.38" width="68.65" height="285.73"/>
  <path class="cls-1" d="m1007.79,1620.36c-24.41,0-46.27,5.6-64.99,16.64-8.16,4.82-15.75,10.69-22.72,17.56-15.89-22.05-40.08-34.2-69.57-34.2-27.55,0-52.35,7.72-72.22,21.96-6.18-15.03-19.03-21.96-31.8-21.96-7.47,0-15.14,2.16-22.8,6.41l-9.77,5.43v278.91h68.65v-164.22c0-19.56,5.9-35.63,17.05-46.5,10.69-10.41,25.85-15.91,43.84-15.91,8.27,0,14.29,3.24,18.96,10.19,4.23,6.29,9.27,18.54,9.27,41.16v175.27h68.65v-164.22c0-38.49,23.14-62.4,60.39-62.4,8.53,0,14.71,3.26,19.44,10.24,4.24,6.26,9.3,18.48,9.3,41.1v175.27h68.65v-182.81c0-31.73-7.98-58.46-23.09-77.28-16.1-20.06-39.36-30.66-67.27-30.66Z"/>
  <path class="cls-1" d="m1362.27,1649.47c-19.05-19.05-46.31-29.12-78.82-29.12-38.78,0-71.58,9.65-100.26,29.51l-14.58,10.1,32.27,54.22,16.84-12.21c16.7-12.1,36.72-17.99,61.21-17.99,27.7,0,42.03,14.98,43.65,45.73-16.67-1.22-31.58-1.83-45.16-1.83-36.18,0-65.34,7.99-86.67,23.76-22.79,16.85-34.84,41.44-34.84,71.12s8.9,51.76,25.73,68.27c16.74,16.42,40.65,25.09,69.14,25.09,26.77,0,53.28-9.38,74.91-25.49,1.41,4.5,3.42,8.52,6.02,12.01,6.48,8.69,16.11,13.48,27.1,13.48,9.51,0,18.15-2.7,24.97-7.82l7.6-5.7v-174.32c0-32.52-10.07-59.77-29.12-78.82Zm-104.95,203.53c-22.04,0-32.76-10.39-32.76-31.75,0-9.7,3.47-16.65,10.93-21.87,9.22-6.46,23.9-9.88,42.43-9.88,14.21,0,29.66.54,44.8,1.56-.88,40.43-38.3,61.95-65.4,61.95Z"/>
</svg>