<?xml version="1.0" encoding="utf-8"?>
<!-- Generator: Adobe Illustrator 27.7.0, SVG Export Plug-In . SVG Version: 6.00 Build 0)  -->
<svg version="1.1" id="Camada_1" xmlns="http://www.w3.org/2000/svg" xmlns:xlink="http://www.w3.org/1999/xlink" x="0px" y="0px"
	 viewBox="0 0 436 191.8" style="enable-background:new 0 0 436 191.8;" xml:space="preserve">
<style type="text/css">
	.st0{fill-rule:evenodd;clip-rule:evenodd;fill:#27AFD2;}
	.st1{fill-rule:evenodd;clip-rule:evenodd;fill:#64C8E3;}
	.st2{fill-rule:evenodd;clip-rule:evenodd;fill:#164DAE;}
	.st3{fill:#B2CB07;}
	.st4{fill:#606060;}
	.st5{fill:#164DAE;}
	.st6{fill:#27AFD2;}
	.st7{fill:#64C8E3;}
</style>
<rect x="-106" y="-19.5" class="st0" width="71.4" height="71.4"/>
<rect x="-106" y="59.8" class="st1" width="71.4" height="71.4"/>
<rect x="-106" y="143.7" class="st2" width="71.4" height="71.4"/>
<path class="st3" d="M-213.5-113.3h-1.6v-0.7C-214.5-113.9-214-113.6-213.5-113.3z"/>
<polygon class="st3" points="-158,-132.5 -158.1,-132.3 -158.7,-132.3 "/>
<path class="st3" d="M-136.7-124.9c-0.1,0-0.2,0-0.3,0l0.2-0.4L-136.7-124.9z"/>
<polygon class="st4" points="-158,-132.5 -158.1,-132.3 -158.7,-132.3 "/>
<path class="st5" d="M146.1,126.1h14.1v19h-47.9v-19h13.1l-0.2-38.8c0-2.9,0.5-5.7,1.7-8.3c2.7-6.1,7.1-11.1,11-13.2h-25.5v-19h47.9
	v19h-12.9c-0.5-0.3-1.1,0.2-1.6,0L146.1,126.1z"/>
<path class="st6" d="M333.9,56.3c-5.8-5.8-13.8-9.4-22.6-9.4H276v97.8c1.1-0.2,2.4,0.4,3.5,0c10.1-3.8,19.4-14.5,19.4-26
	c0-2.8,0-3.8,0-7.9h12.4c17.7,0,32-14.3,32-32C343.2,70.1,339.6,62.1,333.9,56.3z M309.2,91.1h-10.3v-24h10.3c6.6,0,12,5.4,12,12
	S315.8,91.1,309.2,91.1z"/>
<path class="st6" d="M266.5,145h-23.8h-0.2l-6.5-18.8l-0.9-2.5h-3.4c-2.4,0-4.7-0.5-6.9-1.3c0,0-0.1,0-0.1,0c-3-1.5-5.8-3.7-8-6.3
	c-1-1.2-2-2.6-2.8-4c0,0,0,0,0,0c-0.5-0.9-1-1.8-1.4-2.8c-0.1-0.4-0.3-0.7-0.4-1.1l-0.2-0.6l-0.1-0.2h16.8l-8.2-21l-0.4-1.1
	l-5.6,15.2l-2.5,6.9l-6.1,16.5l-0.1,0.3l-0.3,0.8c-0.2,0.5-0.4,0.9-0.6,1.4c-0.6,1.3-1.2,2.5-1.9,3.6c0,0,0,0,0,0
	c-1.1,1.9-2.4,3.6-3.8,5.2c-3,3.5-6.7,6.3-10.8,8.2c0,0-0.1,0-0.1,0.1c-2.9,1.1-6,1.7-9.3,1.7c-1.7,0-3.4-0.2-5-0.5l36.5-97.8h18.5
	L266.5,145z"/>
<path class="st6" d="M436,145h-23.8H412l-6.5-18.8l-0.9-2.5h-3.4c-2.4,0-4.7-0.5-6.9-1.3c0,0-0.1,0-0.1,0c-3-1.5-5.8-3.7-8-6.3
	c-1-1.2-2-2.6-2.8-4c0,0,0,0,0,0c-0.5-0.9-1-1.8-1.4-2.8c-0.1-0.4-0.3-0.7-0.4-1.1l-0.2-0.6l-0.1-0.2h16.8l-8.2-21l-0.4-1.1
	l-5.6,15.2l-2.5,6.9l-6.1,16.5l-0.1,0.3l-0.3,0.8c-0.2,0.5-0.4,0.9-0.6,1.4c-0.6,1.3-1.2,2.5-1.9,3.6c0,0,0,0,0,0
	c-1.1,1.9-2.4,3.6-3.8,5.2c-3,3.5-6.7,6.3-10.8,8.2c0,0-0.1,0-0.1,0.1c-2.9,1.1-6,1.7-9.3,1.7c-1.7,0-3.4-0.2-5-0.5l36.5-97.8h18.5
	L436,145z"/>
<path class="st0" d="M148.9,16.4c0,3.5-1.4,6.7-3.7,9c-2.3,2.3-5.5,3.7-9,3.7c-5.9,0-10.8-4-12.3-9.4c-0.3-1.1-0.5-2.2-0.5-3.4
	s0.2-2.3,0.5-3.4c0.6-2.2,1.7-4.1,3.3-5.7c2.3-2.3,5.5-3.7,9-3.7c3.5,0,6.7,1.4,9,3.7C147.4,9.7,148.9,12.9,148.9,16.4z"/>
<path class="st0" d="M98.4,58.1c0,3.5-1.4,6.7-3.7,9c-2.3,2.3-5.5,3.7-9,3.7c-3.4,0-6.5-1.3-8.8-3.5h0c-0.9-0.8-1.6-1.7-2.2-2.8
	c-0.6-1-1-2-1.3-3.1c-0.3-1.1-0.5-2.2-0.5-3.4c0-3,1-5.8,2.8-8c0.3-0.3,0.6-0.7,0.9-1c0.5-0.5,1-0.9,1.5-1.3c0.9-0.7,1.9-1.2,3-1.6
	c1.4-0.5,2.9-0.8,4.5-0.8c3.5,0,6.7,1.4,9,3.7C97,51.4,98.4,54.5,98.4,58.1z"/>
<path class="st0" d="M25.5,85c0,0.3,0,0.7,0,1c-0.1,1.3-0.4,2.6-0.9,3.8c-0.4,1.1-1,2-1.7,2.9c-0.3,0.4-0.7,0.9-1.1,1.3
	c-0.4,0.4-0.8,0.8-1.3,1.1c-2.2,1.6-4.8,2.6-7.7,2.6C5.7,97.8,0,92.1,0,85c0-3.5,1.4-6.7,3.7-9c2.3-2.3,5.5-3.7,9-3.7
	c1.3,0,2.5,0.2,3.6,0.5c1.1,0.3,2.1,0.8,3.1,1.4c0.8,0.5,1.6,1.1,2.3,1.8c0.1,0.1,0.2,0.2,0.3,0.4c0.8,0.9,1.5,1.9,2.1,3
	c0.5,1,0.9,2.1,1.1,3.2C25.4,83.3,25.5,84.2,25.5,85z"/>
<path class="st0" d="M94.4,137.9c0,3.5-1.4,6.7-3.7,9c-2.3,2.3-5.5,3.7-9,3.7c-1.9,0-3.6-0.4-5.2-1.1c-1-0.5-2-1.1-2.9-1.8
	c-0.9-0.7-1.7-1.5-2.3-2.5c-1.5-2.1-2.4-4.6-2.4-7.4c0-1.7,0.3-3.3,1-4.8c0.4-1.1,1-2,1.7-2.9c0.3-0.4,0.7-0.9,1.1-1.3
	c0.4-0.4,0.8-0.8,1.3-1.1c2.2-1.6,4.8-2.6,7.7-2.6c3.5,0,6.7,1.4,9,3.7C93,131.2,94.4,134.4,94.4,137.9z"/>
<path class="st0" d="M61.8,177.8c0,0.4,0,0.8-0.1,1.3c-0.1,1.2-0.4,2.3-0.8,3.4c-0.6,1.7-1.6,3.2-2.9,4.4c-2.3,2.3-5.5,3.7-9,3.7
	c-7,0-12.8-5.7-12.8-12.8c0-3.5,1.4-6.7,3.7-9c2.3-2.3,5.5-3.7,9-3.7c1.9,0,3.6,0.4,5.2,1.1c1,0.5,2,1.1,2.9,1.8
	c0.3,0.3,0.6,0.6,1,0.9c0.5,0.5,1,1,1.4,1.6c1.1,1.5,1.9,3.3,2.2,5.3C61.8,176.4,61.8,177.1,61.8,177.8z"/>
<path class="st0" d="M141.5,179.1c0,3.5-1.4,6.7-3.7,9c-2.3,2.3-5.5,3.7-9,3.7c-5.9,0-10.8-4-12.3-9.4c-0.3-1.1-0.5-2.2-0.5-3.4
	c0-1.2,0.2-2.3,0.5-3.4c0.6-2.2,1.7-4.1,3.3-5.6c2.3-2.3,5.5-3.7,9-3.7c3.5,0,6.7,1.4,9,3.7C140,172.3,141.5,175.5,141.5,179.1z"/>
<path class="st7" d="M123.3,16.4c0,1.2,0.2,2.3,0.5,3.4l-57.6,0c0.7-1,1.2-2.2,1.6-3.4c0.3-1.1,0.5-2.2,0.5-3.4l55.5,0
	C123.5,14.1,123.3,15.2,123.3,16.4z"/>
<path class="st7" d="M25.5,86c0-0.3,0-0.7,0-1c0-0.8-0.1-1.7-0.2-2.5c-0.2-1.1-0.6-2.2-1.1-3.2l49.2-17.9c0.3,1.1,0.7,2.1,1.3,3.1
	c0.6,1,1.4,2,2.2,2.8L25.5,86z"/>
<path class="st7" d="M81.2,46.1c-1.1,0.4-2.1,0.9-3,1.6c-0.6,0.4-1.1,0.8-1.5,1.3c-0.3,0.3-0.6,0.7-0.9,1L57.8,25.3
	c1.2-0.2,2.3-0.6,3.3-1.1c1-0.5,1.9-1.1,2.8-1.9L81.2,46.1z"/>
<path class="st6" d="M68.3,12.8V13c0,1.2-0.2,2.3-0.5,3.4c-0.3,1.2-0.9,2.3-1.6,3.4c-0.5,0.7-1,1.4-1.6,2c-0.2,0.2-0.4,0.4-0.6,0.6
	c-0.8,0.7-1.8,1.4-2.8,1.9c-1,0.5-2.2,0.9-3.3,1.1h0c-0.7,0.1-1.5,0.2-2.3,0.2c-0.6,0-1.1,0-1.6-0.1c-1.2-0.1-2.3-0.5-3.4-0.9
	c-1-0.5-2-1-2.9-1.7c-2.9-2.3-4.8-5.9-4.8-10c0-3.5,1.4-6.7,3.7-9C48.8,1.4,52,0,55.5,0c3.5,0,6.7,1.4,9,3.7
	C66.8,6.1,68.3,9.2,68.3,12.8z"/>
<path class="st7" d="M73.9,127.8c-0.5,0.3-0.9,0.7-1.3,1.1c-0.4,0.4-0.8,0.8-1.1,1.3c-0.7,0.9-1.3,1.9-1.7,2.9L20.5,95.2
	c0.5-0.3,0.9-0.7,1.3-1.1c0.4-0.4,0.8-0.8,1.1-1.3c0.7-0.9,1.3-1.9,1.7-2.9L73.9,127.8z"/>
<path class="st7" d="M116,179.1c0,1.2,0.2,2.3,0.5,3.4l-55.4,0c0.4-1.1,0.7-2.2,0.8-3.4c0-0.4,0.1-0.8,0.1-1.3
	c0-0.7-0.1-1.4-0.2-2.1l54.7,0C116.1,176.8,116,177.9,116,179.1z"/>
<path class="st7" d="M76.5,149.6l-17,20.8c-0.4-0.6-0.9-1.1-1.4-1.6c-0.3-0.3-0.6-0.6-1-0.9c-0.9-0.7-1.8-1.3-2.9-1.8l17-20.8
	c0.7,0.9,1.5,1.8,2.3,2.5C74.5,148.5,75.4,149.1,76.5,149.6z"/>
<path class="st7" d="M53.9,25.4l-31.7,51c-0.1-0.1-0.2-0.2-0.3-0.4c-0.7-0.7-1.5-1.3-2.3-1.8c-1-0.6-2-1.1-3.1-1.4l31.2-50
	c0.9,0.7,1.8,1.3,2.9,1.7C51.5,24.9,52.7,25.3,53.9,25.4z"/>
</svg>
