<?xml version="1.0" encoding="UTF-8"?>
<svg id="Camada_1" data-name="Camada 1" xmlns="http://www.w3.org/2000/svg" viewBox="0 0 594 182.69">
  <defs>
    <style>
      .cls-1, .cls-2 {
        fill: #39c;
      }

      .cls-2 {
        fill-rule: evenodd;
      }

      .cls-3 {
        fill: #164dae;
      }
    </style>
  </defs>
  <g>
    <path class="cls-2" d="m106.06,47.97c0,3.71-1.49,7.11-3.93,9.55-2.44,2.44-5.84,3.93-9.55,3.93s-6.9-1.38-9.34-3.71h0c-.95-.85-1.7-1.8-2.33-2.97-.64-1.06-1.06-2.12-1.38-3.29s-.53-2.33-.53-3.61c0-3.18,1.06-6.15,2.97-8.49.32-.32.64-.74.95-1.06.53-.53,1.06-.95,1.59-1.38.95-.74,2.02-1.27,3.18-1.7,1.49-.53,3.08-.85,4.77-.85,3.71,0,7.11,1.49,9.55,3.93,2.55,2.55,4.03,5.84,4.03,9.66Z"/>
    <path class="cls-2" d="m31.6,70.12v1.24c-.12,1.62-.5,3.23-1.12,4.73-.5,1.37-1.24,2.49-2.11,3.61-.37.5-.87,1.12-1.36,1.62s-.99,1-1.61,1.37c-2.73,1.99-5.95,3.23-9.54,3.23-8.8.12-15.86-6.97-15.86-15.8,0-4.35,1.73-8.34,4.59-11.2,2.85-2.86,6.82-4.6,11.15-4.6,1.61,0,3.1.25,4.46.62,1.36.37,2.6,1,3.84,1.74.99.62,1.98,1.37,2.85,2.24.12.12.25.25.37.5.99,1.12,1.86,2.36,2.6,3.73.62,1.24,1.12,2.61,1.36,3.98.25.87.37,1.99.37,2.99Z"/>
    <path class="cls-2" d="m101.81,113.71c0,3.71-1.49,7.11-3.93,9.55-2.44,2.44-5.84,3.93-9.55,3.93-2.02,0-3.82-.42-5.52-1.17-1.06-.53-2.12-1.17-3.08-1.91s-1.8-1.59-2.44-2.65c-1.59-2.23-2.55-4.88-2.55-7.85,0-1.8.32-3.5,1.06-5.09.42-1.17,1.06-2.12,1.8-3.08.32-.42.74-.95,1.17-1.38.42-.42.85-.85,1.38-1.17,2.33-1.7,5.09-2.76,8.17-2.76,3.71,0,7.11,1.49,9.55,3.93,2.44,2.55,3.93,5.94,3.93,9.66Z"/>
    <path class="cls-1" d="m28.7,70.95v-.82c0-.66-.11-1.4-.21-2.06-.21-.91-.64-1.81-1.17-2.64l52.21-14.75c.32.91.74,1.73,1.38,2.55.64.82,1.49,1.65,2.33,2.31l-54.54,15.4Z"/>
    <path class="cls-1" d="m87.81,38.08c-1.17.33-2.23.74-3.18,1.32-.64.33-1.17.66-1.59,1.07-.32.25-.64.58-.96.82l-19.1-20.35c1.27-.16,2.44-.49,3.5-.91s2.02-.91,2.97-1.57l18.36,19.61Z"/>
    <g>
      <path class="cls-2" d="m158,15.8v1.24c-.12,1.62-.5,3.23-1.12,4.73-.5,1.37-1.24,2.49-2.11,3.61-.37.5-.87,1.12-1.36,1.62s-.99,1-1.61,1.37c-2.73,1.99-5.95,3.23-9.54,3.23-8.8.12-15.86-6.97-15.86-15.8,0-4.35,1.73-8.34,4.59-11.2,2.85-2.86,6.82-4.6,11.15-4.6,1.61,0,3.1.25,4.46.62,1.36.37,2.6,1,3.84,1.74.99.62,1.98,1.37,2.85,2.24.12.12.25.25.37.5.99,1.12,1.86,2.36,2.6,3.73.62,1.24,1.12,2.61,1.36,3.98.25.87.37,1.99.37,2.99Z"/>
      <path class="cls-1" d="m132.48,15.8c0,.99.21,1.89.53,2.8h-61.12c.74-.82,1.27-1.81,1.7-2.8.32-.91.53-1.81.53-2.8h58.89c-.32.91-.53,1.81-.53,2.8Z"/>
      <path class="cls-1" d="m74.12,15.8v.21c0,1.27-.21,2.43-.53,3.59-.32,1.27-.96,2.43-1.7,3.59-.53.74-1.06,1.48-1.7,2.11-.21.21-.42.42-.64.63-.85.74-1.91,1.48-2.97,2.01s-2.33.95-3.5,1.16h0c-.74.11-1.59.21-2.44.21-.64,0-1.17,0-1.7-.11-1.27-.11-2.44-.53-3.61-.95-1.06-.53-2.12-1.06-3.08-1.8-3.08-2.43-5.09-6.24-5.09-10.57,0-3.7,1.49-7.08,3.93-9.51,2.33-2.64,5.73-4.12,9.44-4.12s7.11,1.48,9.55,3.91c2.44,2.54,4.03,5.81,4.03,9.62Z"/>
    </g>
    <path class="cls-1" d="m80.06,105.38c-.53.25-.96.58-1.38.91-.42.33-.85.66-1.17,1.07-.74.74-1.38,1.57-1.8,2.39l-52.31-31.22c.53-.25.96-.58,1.38-.91s.85-.66,1.17-1.07c.74-.74,1.38-1.57,1.8-2.39l52.31,31.22Z"/>
    <g>
      <path class="cls-2" d="m146.18,142.2v1.24c-.12,1.62-.5,3.23-1.12,4.73-.5,1.37-1.24,2.49-2.11,3.61-.37.5-.87,1.12-1.36,1.62s-.99,1-1.61,1.37c-2.73,1.99-5.95,3.23-9.54,3.23-8.8.12-15.86-6.97-15.86-15.8,0-4.35,1.73-8.34,4.59-11.2,2.85-2.86,6.82-4.6,11.15-4.6,1.61,0,3.1.25,4.46.62,1.36.37,2.6,1,3.84,1.74.99.62,1.98,1.37,2.85,2.24.12.12.25.25.37.5.99,1.12,1.86,2.36,2.6,3.73.62,1.24,1.12,2.61,1.36,3.98.25.87.37,1.99.37,2.99Z"/>
      <path class="cls-2" d="m68.81,142.15c0,.42,0,.85-.11,1.38-.11,1.27-.42,2.44-.85,3.61-.63,1.8-1.69,3.4-3.07,4.67-2.43,2.44-5.81,3.93-9.51,3.93-7.4,0-13.53-6.05-13.53-13.58,0-3.71,1.48-7.11,3.91-9.55,2.43-2.44,5.81-3.93,9.51-3.93,2.01,0,3.8.42,5.5,1.17,1.06.53,2.11,1.17,3.07,1.91.32.32.63.64,1.06.95.53.53,1.06,1.06,1.48,1.7,1.16,1.59,2.01,3.5,2.33,5.62.21.64.21,1.38.21,2.12Z"/>
      <path class="cls-1" d="m124.73,142.2c0,.99.21,1.89.53,2.8h-58.79c.42-.91.74-1.81.85-2.8,0-.33.11-.66.11-1.07,0-.58-.11-1.15-.21-1.73h58.04c-.42.91-.53,1.81-.53,2.8Z"/>
    </g>
    <path class="cls-1" d="m82.82,123.34l-18.04,17.13c-.42-.49-.96-.91-1.49-1.32-.32-.25-.64-.49-1.06-.74-.96-.58-1.91-1.07-3.08-1.48l18.04-17.13c.74.74,1.59,1.48,2.44,2.06,1.06.58,2.02,1.07,3.18,1.48Z"/>
    <path class="cls-1" d="m58.84,21.03L25.2,63.04c-.11-.08-.21-.16-.32-.33-.74-.58-1.59-1.07-2.44-1.48-1.06-.49-2.12-.91-3.29-1.15L52.26,18.88c.96.58,1.91,1.07,3.08,1.4.95.33,2.23.66,3.5.74Z"/>
  </g>
  <g>
    <path class="cls-3" d="m203.53,156.97h18.99v25.59h-64.52v-25.59h17.64s-8.82-68.15,16.84-81.22h-34.48v-25.59h64.65v25.59h-19.13v81.22Z"/>
    <path class="cls-1" d="m456.48,62.96c-14.87-18.87-57.3-11.25-77.99-12.66v131.73h4.71c5.84-4.43,30.75-23.4,26.13-45.66h16.7c37.57,1.28,57.35-48.11,30.44-73.41Zm-33.27,46.87h-13.87v-32.33h13.87c21.13.14,21.12,32.19,0,32.33Z"/>
    <path class="cls-1" d="m365.7,182.43h-32.33c-.67-1.92-9.59-27.81-9.97-28.69-11.96,1.43-22.88-5.2-28.55-15.62h0c-1.19-1.95-2.05-4.17-2.83-6.33h22.63l-11.04-28.29-.54-1.48c-7.27,18.11-14.42,42.76-23.03,60.21h0c-4.64,7.89-11.72,14.3-19.8,18.18-5.85,2.29-12.96,2.91-19.26,1.62l49.16-131.73h24.92l50.64,132.13Z"/>
    <path class="cls-1" d="m594,182.43h-32.33c-.67-1.92-9.59-27.81-9.97-28.69-11.96,1.43-22.88-5.2-28.55-15.62h0c-1.19-1.95-2.05-4.17-2.83-6.33h22.63l-11.04-28.29-.54-1.48c-7.27,18.11-14.42,42.76-23.03,60.21h0c-4.64,7.89-11.72,14.3-19.8,18.18-5.85,2.29-12.96,2.91-19.26,1.62l49.16-131.73h24.92l50.64,132.13Z"/>
  </g>
</svg>